#!OML:ASF H:\Terrain\Patient Classification 1\Animal2\Wednesday\Animal2.ASF
:FULLY-SPECIFIED
:DEGREES
1103
root 15.0828 16.3557 -3.86836 -5.4618 16.2206 -3.04854
lowerback 8.97193 5.94289 9.96637
upperback -0.746468 8.98937 -0.0148084
thorax -4.27566 4.21379 -6.55473
lowerneck -0.383193 -3.89996 11.7451
upperneck -4.77729 -5.70756 -13.9255
head -2.0732 -2.8041 -6.04695
rclavicle 9.109e-014 7.65321e-015
rhumerus -26.9144 10.8428 -82.1048
rradius 114.415
rwrist -12.5091
rhand -16.6371 4.74864
rfingers 7.12502
rthumb 9.58552 -25.0133
lclavicle 9.109e-014 7.65321e-015
lhumerus -65.9211 21.9406 37.6792
lradius 114.475
lwrist -16.5535
lhand -3.58799 26.4925
lfingers 7.12502
lthumb 22.1496 55.2436
rfemur -7.21673 8.02661 9.51667
rtibia 44.0603
rfoot -30.4573 -13.1217
rtoes -15.5433
lfemur -17.5305 -7.18465 0.937204
ltibia 46.2009
lfoot -26.8565 -8.11228
ltoes -36.6418
1104
root 15.158 16.3485 -3.88262 -5.48979 15.8089 -3.2675
lowerback 9.03289 5.92203 10.3016
upperback -0.682537 8.99918 -0.0316818
thorax -4.18807 4.21835 -6.75514
lowerneck -0.370995 -3.843 11.9451
upperneck -5.07248 -5.6582 -14.0391
head -2.16304 -2.77757 -6.11796
rclavicle -4.13721e-014 -3.57812e-015
rhumerus -26.9713 10.483 -82.0641
rradius 114.54
rwrist -12.7302
rhand -16.4289 4.88786
rfingers 7.12502
rthumb 9.78642 -24.8647
lclavicle -4.13721e-014 -3.57812e-015
lhumerus -65.5859 22.0634 37.4702
lradius 114.597
lwrist -16.3464
lhand -3.46608 26.9469
lfingers 7.12502
lthumb 22.2666 55.6841
rfemur -7.24275 8.32846 9.44994
rtibia 43.8096
rfoot -30.652 -12.4023
rtoes -13.6312
lfemur -17.695 -6.80881 0.936637
ltibia 46.813
lfoot -27.1134 -7.87983
ltoes -36.6509
1105
root 15.2364 16.3454 -3.89322 -5.42862 15.4357 -3.35067
lowerback 9.23408 5.91413 10.2526
upperback -0.802451 9.02306 0.119653
thorax -4.4569 4.20956 -6.61074
lowerneck -0.104471 -3.79216 11.8118
upperneck -5.35649 -5.59795 -14.1845
head -2.28212 -2.72911 -6.13824
rclavicle 1.94747e-014 2.16675e-014
rhumerus -27.4374 10.3197 -81.7895
rradius 114.705
rwrist -12.986
rhand -16.3896 4.73904
rfingers 7.12502
rthumb 9.82426 -25.0118
lclavicle 1.94747e-014 2.16675e-014
lhumerus -65.637 22.0543 37.3335
lradius 114.813
lwrist -16.4634
lhand -2.31514 27.2859
lfingers 7.12502
lthumb 23.3711 55.8869
rfemur -7.27829 8.58406 9.24612
rtibia 43.5321
rfoot -30.4184 -12.3938
rtoes -14.1313
lfemur -17.8344 -6.56056 0.764024
ltibia 47.3784
lfoot -27.4299 -7.55582
ltoes -36.7426
1106
root 15.3178 16.3449 -3.90622 -5.12234 15.0692 -3.24463
lowerback 9.33358 5.94538 10.0518
upperback -0.995377 9.07085 0.181761
thorax -4.75037 4.21239 -6.47234
lowerneck -0.138505 -3.78603 11.5853
upperneck -5.34832 -5.59794 -14.2415
head -2.269 -2.72442 -6.11874
rclavicle 7.50971e-014 1.30204e-014
rhumerus -28.0579 10.0636 -81.5134
rradius 114.925
rwrist -13.0833
rhand -16.716 4.3891
rfingers 7.12502
rthumb 9.50934 -25.3763
lclavicle 7.50971e-014 1.30204e-014
lhumerus -65.4962 21.9933 37.2892
lradius 114.908
lwrist -16.7401
lhand -0.766581 27.0569
lfingers 7.12502
lthumb 24.8559 55.4611
rfemur -7.55171 8.65145 8.7729
rtibia 43.2396
rfoot -30.0067 -12.5505
rtoes -15.496
lfemur -18.1252 -6.34937 0.365374
ltibia 47.9115
lfoot -27.6596 -7.0856
ltoes -36.8824
1107
root 15.4005 16.3404 -3.92075 -4.8427 14.5323 -3.13805
lowerback 9.31011 5.96127 10.1726
upperback -1.01824 9.09521 0.0179265
thorax -4.71228 4.22149 -6.70804
lowerneck -0.533706 -3.70863 11.5079
upperneck -5.25894 -5.51254 -14.0855
head -2.15893 -2.69903 -6.06753
rclavicle 2.42517e-014 1.61016e-014
rhumerus -28.286 9.49226 -81.4941
rradius 114.947
rwrist -12.94
rhand -16.6973 4.26139
rfingers 7.12502
rthumb 9.52744 -25.5032
lclavicle 2.42517e-014 1.61016e-014
lhumerus -64.8509 22.1244 37.2479
lradius 114.943
lwrist -16.697
lhand 0.0461144 26.7266
lfingers 7.12502
lthumb 25.6345 55.021
rfemur -7.94179 8.75933 8.27064
rtibia 42.9595
rfoot -29.6777 -12.6212
rtoes -16.4279
lfemur -18.3566 -5.93489 -0.0214033
ltibia 48.4529
lfoot -27.9077 -6.87203
ltoes -36.5135
1108
root 15.4804 16.3308 -3.93222 -4.86817 13.8447 -3.21279
lowerback 9.31635 5.79518 9.83774
upperback -0.855646 8.848 0.416454
thorax -4.69911 4.11801 -6.08335
lowerneck -0.655507 -3.35523 11.1744
upperneck -5.41947 -5.07241 -14.3375
head -2.12317 -2.47064 -6.10912
rclavicle -2.40032e-014 -5.56597e-015
rhumerus -28.2258 9.87469 -81.0653
rradius 114.803
rwrist -13.067
rhand -16.4858 4.2603
rfingers 7.12502
rthumb 9.73148 -25.4949
lclavicle -2.40032e-014 -5.56597e-015
lhumerus -65.0719 22.766 37.3054
lradius 115.148
lwrist -16.5632
lhand 0.720011 27.1221
lfingers 7.12502
lthumb 26.2798 55.322
rfemur -8.03839 9.16888 8.03896
rtibia 42.6861
rfoot -29.3473 -12.695
rtoes -17.356
lfemur -18.3079 -5.33196 -0.178311
ltibia 49.0425
lfoot -28.3225 -6.86882
ltoes -36.2715
1109
root 15.5564 16.3179 -3.9492 -4.90141 13.1506 -3.48919
lowerback 9.3713 5.79565 9.83937
upperback -0.784203 8.8647 0.687504
thorax -4.69472 4.13092 -5.80547
lowerneck -0.623698 -3.22616 11.2639
upperneck -5.56049 -4.92495 -14.6838
head -2.15921 -2.38907 -6.23946
rclavicle -4.81929e-014 -2.18663e-015
rhumerus -28.3807 9.60702 -80.5897
rradius 114.659
rwrist -13.2474
rhand -16.5446 4.63781
rfingers 7.12502
rthumb 9.67475 -25.12
lclavicle -4.81929e-014 -2.18663e-015
lhumerus -64.6136 22.8306 37.7041
lradius 115.254
lwrist -16.5868
lhand 1.40991 27.7603
lfingers 7.12502
lthumb 26.9401 55.8599
rfemur -8.13977 9.66135 8.05109
rtibia 42.4193
rfoot -28.9489 -12.7563
rtoes -18.3931
lfemur -18.3875 -4.78518 -0.0741143
ltibia 49.6864
lfoot -28.6746 -6.85942
ltoes -36.1173
1110
root 15.6323 16.304 -3.96846 -4.92776 12.4871 -3.92394
lowerback 9.37704 5.83338 10.0644
upperback -0.745852 8.94874 0.894843
thorax -4.64475 4.17247 -5.71417
lowerneck -0.362041 -3.17323 11.6067
upperneck -5.96218 -4.88505 -15.0413
head -2.33019 -2.35337 -6.41045
rclavicle 2.56308e-014 -2.00773e-014
rhumerus -28.6042 8.97915 -80.1338
rradius 114.624
rwrist -13.3227
rhand -16.4987 4.96658
rfingers 7.12502
rthumb 9.71907 -24.7892
lclavicle 2.56308e-014 -2.00773e-014
lhumerus -63.6957 22.7741 38.3554
lradius 115.277
lwrist -16.4958
lhand 1.56491 28.2327
lfingers 7.12502
lthumb 27.0884 56.3094
rfemur -8.29921 10.0943 8.24118
rtibia 42.1313
rfoot -28.4561 -12.9212
rtoes -19.7812
lfemur -18.5272 -4.39318 0.204375
ltibia 50.3219
lfoot -28.9438 -7.00628
ltoes -34.8193
1111
root 15.7138 16.2929 -3.98216 -4.95669 11.9714 -4.13439
lowerback 9.46162 5.65633 10.127
upperback -0.728595 8.73848 1.05551
thorax -4.72516 4.06357 -5.57434
lowerneck -0.0624064 -2.96568 11.7366
upperneck -6.3565 -4.62664 -15.2818
head -2.46672 -2.20537 -6.51628
rclavicle 3.75952e-014 2.18663e-014
rhumerus -28.9816 8.72124 -80.0101
rradius 114.712
rwrist -13.3837
rhand -16.3056 4.83856
rfingers 7.12502
rthumb 9.90531 -24.9084
lclavicle 3.75952e-014 2.18663e-014
lhumerus -63.1487 22.8858 38.6393
lradius 115.311
lwrist -16.1917
lhand 1.88642 28.4244
lfingers 7.12502
lthumb 27.396 56.4528
rfemur -8.38858 10.3259 8.16554
rtibia 41.8237
rfoot -27.7761 -13.447
rtoes -22.2906
lfemur -18.581 -4.15451 0.16781
ltibia 50.892
lfoot -29.2843 -7.15547
ltoes -32.8805
1112
root 15.7989 16.2922 -3.99359 -4.91508 11.4886 -4.13285
lowerback 9.66831 5.41742 10.1906
upperback -0.771139 8.45399 1.00068
thorax -4.9157 3.90684 -5.67176
lowerneck -0.101695 -2.73943 11.8762
upperneck -6.38591 -4.32734 -15.3504
head -2.43027 -2.06032 -6.57413
rclavicle -1.24874e-013 -1.66979e-014
rhumerus -29.4816 8.31753 -80.2136
rradius 114.611
rwrist -13.16
rhand -16.193 5.03174
rfingers 7.12502
rthumb 10.014 -24.71
lclavicle -1.24874e-013 -1.66979e-014
lhumerus -62.6127 22.9482 38.585
lradius 115.314
lwrist -16.1322
lhand 2.61449 28.4945
lfingers 7.12502
lthumb 28.0921 56.4108
rfemur -8.52363 10.4843 7.85029
rtibia 41.5202
rfoot -27.1311 -13.7518
rtoes -23.9589
lfemur -18.6182 -3.95834 -0.148415
ltibia 51.3947
lfoot -29.4732 -7.47969
ltoes -30.1545
1113
root 15.8815 16.288 -4.00499 -4.89988 10.9456 -4.13819
lowerback 9.8464 5.29011 10.2487
upperback -0.736758 8.30535 0.907203
thorax -4.98132 3.82748 -5.80723
lowerneck -0.0913896 -2.58546 12.1537
upperneck -6.72475 -4.14649 -15.3755
head -2.51037 -1.97208 -6.63848
rclavicle 1.922e-014 5.96354e-015
rhumerus -29.8681 7.59028 -80.2032
rradius 114.476
rwrist -12.8545
rhand -16.1555 5.16701
rfingers 7.12502
rthumb 10.0501 -24.573
lclavicle 1.922e-014 5.96354e-015
lhumerus -61.6555 22.9683 38.6234
lradius 115.133
lwrist -16.4615
lhand 3.8798 28.3149
lfingers 7.12502
lthumb 29.3009 56.0265
rfemur -8.57832 10.8295 7.54978
rtibia 41.2239
rfoot -26.8721 -13.5547
rtoes -23.96
lfemur -18.58 -3.69375 -0.44221
ltibia 51.8813
lfoot -29.6989 -7.22365
ltoes -30.154
1114
root 15.9616 16.2661 -4.01741 -4.90645 10.3996 -4.2192
lowerback 9.99511 5.16429 10.2792
upperback -0.753217 8.15823 0.852175
thorax -5.09494 3.74526 -5.88769
lowerneck 0.193899 -2.4278 12.637
upperneck -7.1383 -3.94531 -15.5356
head -2.66153 -1.86489 -6.78103
rclavicle -5.09013e-014 3.18055e-014
rhumerus -30.3588 6.98328 -80.1071
rradius 114.527
rwrist -12.8489
rhand -16.2823 4.5932
rfingers 7.12502
rthumb 9.92785 -25.1527
lclavicle -5.09013e-014 3.18055e-014
lhumerus -60.651 22.6476 38.7076
lradius 114.898
lwrist -16.4509
lhand 5.34017 27.7297
lfingers 7.12502
lthumb 30.6944 55.189
rfemur -8.5661 11.2795 7.31896
rtibia 40.9464
rfoot -26.7673 -13.4982
rtoes -24.192
lfemur -18.571 -3.33672 -0.615909
ltibia 52.4065
lfoot -30.1005 -6.52951
ltoes -32.752
